<svg id="Layer_5" data-name="Layer 5" xmlns="http://www.w3.org/2000/svg" xmlns:xlink="http://www.w3.org/1999/xlink" viewBox="0 0 254.62 150.5"><defs><style>.cls-1{fill:#f6f6f6;}.cls-2{fill:url(#linear-gradient);}.cls-3{fill:url(#linear-gradient-2);}.cls-4{fill:url(#linear-gradient-3);}.cls-5{fill:url(#radial-gradient);}.cls-6{fill:url(#linear-gradient-4);}.cls-7{fill:url(#linear-gradient-5);}</style><linearGradient id="linear-gradient" x1="59.55" y1="251.08" x2="129.66" y2="251.08" gradientTransform="translate(122.93 -118.03)" gradientUnits="userSpaceOnUse"><stop offset="0.15" stop-color="#f6f6f6"/><stop offset="1" stop-color="#493e70"/></linearGradient><linearGradient id="linear-gradient-2" x1="55.45" y1="281.2" x2="128.99" y2="281.2" gradientTransform="translate(92.26 -207.83)" xlink:href="#linear-gradient"/><linearGradient id="linear-gradient-3" x1="191.15" y1="125.91" x2="86.8" y2="125.91" gradientTransform="matrix(1, 0, 0, 1, 0, 0)" xlink:href="#linear-gradient"/><radialGradient id="radial-gradient" cx="141.31" cy="136.09" fx="111.81162144298607" r="30.76" gradientTransform="translate(-17.52 -177.26) scale(1 1.87)" gradientUnits="userSpaceOnUse"><stop offset="0.14" stop-color="#493e70"/><stop offset="0.27" stop-color="#4c4173" stop-opacity="0.94"/><stop offset="0.46" stop-color="#554a7c" stop-opacity="0.77"/><stop offset="0.69" stop-color="#63588a" stop-opacity="0.49"/><stop offset="0.93" stop-color="#766b9d" stop-opacity="0.11"/><stop offset="1" stop-color="#7c71a3" stop-opacity="0"/></radialGradient><linearGradient id="linear-gradient-4" x1="38.96" y1="117.77" x2="74.62" y2="64.79" gradientUnits="userSpaceOnUse"><stop offset="0.15" stop-color="#493e70" stop-opacity="0"/><stop offset="1" stop-color="#5d4f8d"/></linearGradient><linearGradient id="linear-gradient-5" x1="147.57" y1="108.92" x2="147.57" y2="135.57" gradientUnits="userSpaceOnUse"><stop offset="0.2" stop-color="#eae9ee" stop-opacity="0"/><stop offset="1" stop-color="#f6f6f6"/></linearGradient></defs><path class="cls-1" d="M272.14,170.45a34.26,34.26,0,0,1-4,17,35,35,0,0,1-11,12,52,52,0,0,1-16.32,7.2A77.49,77.49,0,0,1,221.05,209H163.38a15.67,15.67,0,0,1-15.67-15.67V58.53h83.73a29.82,29.82,0,0,1,14.2,3.39,35.67,35.67,0,0,1,10.81,8.8A40.39,40.39,0,0,1,263.34,83a42.07,42.07,0,0,1,2.44,14.09,40.56,40.56,0,0,1-5.41,20.35,34.14,34.14,0,0,1-16.21,14.42,38.87,38.87,0,0,1,20.45,13.56Q272.14,155.19,272.14,170.45ZM182.47,88.21v31.16H216.6a15.17,15.17,0,0,0,10.18-3.82q4.44-3.81,4.45-11.87,0-7.41-3.92-11.44a12.69,12.69,0,0,0-9.44-4Zm54.27,75.25a18,18,0,0,0-4-11.87,12.64,12.64,0,0,0-10.17-4.88H182.47v32.86h38.58a15.24,15.24,0,0,0,11.24-4.45A15.81,15.81,0,0,0,236.74,163.46Z" transform="translate(-17.52 -58.53)"/><rect class="cls-2" x="182.47" y="119.37" width="44.76" height="27.34" transform="translate(392.19 207.55) rotate(180)"/><rect class="cls-3" x="147.71" y="58.53" width="73.53" height="29.68" transform="translate(351.44 88.21) rotate(180)"/><path class="cls-4" d="M167.23,58.53H91.71l-.4,29.68h56.4V193.3h34.76V73.77A15.24,15.24,0,0,0,167.23,58.53Z" transform="translate(-17.52 -58.53)"/><polygon class="cls-5" points="130.19 18.88 130.19 134.76 164.96 134.76 164.96 18.88 145.44 18.88 135.01 18.88 130.19 18.88"/><path class="cls-1" d="M91.1,209A69,69,0,0,1,61,202.55a74.15,74.15,0,0,1-23.21-17,77.57,77.57,0,0,1-14.94-24.15,76.07,76.07,0,0,1-5.33-28,73.91,73.91,0,0,1,5.54-28.21A74.81,74.81,0,0,1,62,64.7a71,71,0,0,1,29.69-6.17A69.09,69.09,0,0,1,121.83,65,73.6,73.6,0,0,1,145,82.15a77.45,77.45,0,0,1,14.84,24.25A76.39,76.39,0,0,1,165.09,134a73.92,73.92,0,0,1-5.54,28.22,75,75,0,0,1-38.77,40.55A70,70,0,0,1,91.1,209ZM51.6,133.89a57,57,0,0,0,2.56,17,45.48,45.48,0,0,0,7.58,14.62,37.28,37.28,0,0,0,12.49,10.25,36.82,36.82,0,0,0,17.08,3.84,36.08,36.08,0,0,0,17.5-4.06A37.88,37.88,0,0,0,121.19,165a46.32,46.32,0,0,0,7.37-14.73A58.51,58.51,0,0,0,131,133.46a56.65,56.65,0,0,0-2.56-17A43.12,43.12,0,0,0,120.76,102a38.15,38.15,0,0,0-12.48-10,37,37,0,0,0-17-3.73,36.45,36.45,0,0,0-17.4,3.94,38.9,38.9,0,0,0-12.38,10.36,43.53,43.53,0,0,0-7.47,14.62A58.17,58.17,0,0,0,51.6,133.89Z" transform="translate(-17.52 -58.53)"/><path class="cls-6" d="M51.6,133.89a58.17,58.17,0,0,1,2.46-16.76,43.53,43.53,0,0,1,7.47-14.62,37.89,37.89,0,0,1,5.72-5.88h0L50.75,71A73.17,73.17,0,0,0,38.53,81.21a75.22,75.22,0,0,0-15.47,23.94,73.91,73.91,0,0,0-5.54,28.21v.08L51.75,138C51.66,136.61,51.6,135.25,51.6,133.89Z" transform="translate(-17.52 -58.53)"/><polygon class="cls-7" points="164.96 112.12 130.19 112.12 130.19 134.83 164.96 137.28 164.96 112.12"/></svg>